<?xml version="1.0" encoding="utf-8"?>
<!-- Generator: Adobe Illustrator 26.0.1, SVG Export Plug-In . SVG Version: 6.00 Build 0)  -->
<svg version="1.1" id="Слой_1" xmlns="http://www.w3.org/2000/svg" xmlns:xlink="http://www.w3.org/1999/xlink" x="0px" y="0px"
	 viewBox="0 0 24 24" style="enable-background:new 0 0 24 24;" xml:space="preserve">
<path d="M23.4,10.7C24.5,9.9,24,8,22.6,8h-6c-0.6,0-1.2-0.4-1.4-1l-1.9-6c-0.4-1.4-2.3-1.4-2.7,0L8.8,7C8.6,7.6,8,8,7.4,8h-6
	c-1.4,0-2,1.9-0.8,2.7l2.1,1.6c1,0.8,2.4,1.1,3.7,1l5.8-0.8c0.4,0,0.6,0.5,0.2,0.7L6.8,17c-1,0.6-1.7,1.6-2,2.7L4.1,22
	c-0.4,1.4,1.1,2.5,2.2,1.7l4.8-3.7c0.5-0.4,1.2-0.4,1.7,0l4.8,3.7c1.1,0.9,2.6-0.3,2.2-1.7l-1.9-6c-0.2-0.6,0-1.3,0.5-1.7L23.4,10.7
	z"/>
</svg>
