<?xml version="1.0" encoding="utf-8"?>
<!-- Generator: Adobe Illustrator 26.0.1, SVG Export Plug-In . SVG Version: 6.00 Build 0)  -->
<svg version="1.1" id="Слой_1" xmlns="http://www.w3.org/2000/svg" xmlns:xlink="http://www.w3.org/1999/xlink" x="0px" y="0px"
	 viewBox="0 0 24 24" style="enable-background:new 0 0 24 24;" xml:space="preserve">
<g>
	<path d="M22.5,7.1c-0.4-0.2-0.8-0.2-1.1,0.1l-1.3,1c-0.3,0.3-0.7,0.5-1.2,0.6c-0.4,0.1-0.9,0.1-1.3,0c-0.4-0.1-0.8-0.3-1.2-0.5
		c-0.4-0.3-0.6-0.6-0.9-1l-2.7-4.9c-0.4-0.6-1.4-0.6-1.7,0L8.4,7.4c-0.2,0.4-0.5,0.7-0.9,1C7.2,8.6,6.8,8.8,6.4,8.9
		C6,8.9,5.5,8.9,5.1,8.8C4.7,8.7,4.3,8.5,3.9,8.3l-1.3-1C2.3,7,1.8,6.9,1.5,7.1C1.1,7.4,0.9,7.8,1,8.2L2.8,17c0.1,0.5,0.3,1,0.7,1.5
		c0.3,0.4,0.8,0.8,1.2,1c2.3,1.1,4.8,1.7,7.3,1.7c2.5,0,5.1-0.6,7.3-1.7c0.5-0.2,0.9-0.6,1.2-1c0.3-0.4,0.6-0.9,0.7-1.5L23,8.2
		C23.1,7.8,22.9,7.4,22.5,7.1z M19.3,16.6c0,0.2-0.1,0.5-0.3,0.6c-0.1,0.2-0.3,0.3-0.5,0.5c-4,2-8.9,2-12.9,0
		c-0.2-0.1-0.4-0.3-0.5-0.4c-0.1-0.2-0.2-0.4-0.3-0.6l-1.2-6.2c0.4,0.2,0.7,0.3,1.1,0.4c0.7,0.2,1.4,0.2,2.2,0
		c0.7-0.1,1.4-0.4,2-0.9c0.6-0.4,1.1-1,1.4-1.6L12,5.1l1.8,3.3c0.3,0.6,0.8,1.2,1.4,1.6c0.6,0.4,1.3,0.7,2,0.9
		c0.7,0.1,1.5,0.1,2.2,0c0.4-0.1,0.8-0.2,1.1-0.4L19.3,16.6z"/>
	<path d="M15.5,14.1c-2.3,1.2-4.8,1.2-7.1,0c-0.5-0.3-1.1-0.1-1.3,0.4c-0.3,0.5-0.1,1.1,0.4,1.3C9,16.6,10.5,17,12,17s3-0.4,4.5-1.1
		c0.5-0.3,0.7-0.9,0.4-1.3C16.6,14.1,16,13.9,15.5,14.1z"/>
</g>
</svg>
