<?xml version="1.0" encoding="utf-8"?>
<!-- Generator: Adobe Illustrator 26.0.1, SVG Export Plug-In . SVG Version: 6.00 Build 0)  -->
<svg version="1.1" id="Слой_1" xmlns="http://www.w3.org/2000/svg" xmlns:xlink="http://www.w3.org/1999/xlink" x="0px" y="0px"
	 viewBox="0 0 17 17" style="enable-background:new 0 0 17 17;" xml:space="preserve">
<path d="M8.9,0.5c-4.4,0-8,3.6-8,8s3.6,8,8,8c4.4,0,8-3.6,8-8S13.3,0.5,8.9,0.5z M12,10.3c0,0.3-0.2,0.5-0.5,0.5
	c-0.3,0-0.5-0.2-0.5-0.5L11,7l-4.8,4.6l-0.7-0.7l4.8-4.6L7,6.2c-0.3,0-0.5-0.2-0.5-0.5c0-0.3,0.2-0.5,0.5-0.5l4.5,0.1
	c0.3,0,0.5,0.2,0.5,0.5L12,10.3z"/>
</svg>
