<?xml version="1.0" encoding="utf-8"?>
<!-- Generator: Adobe Illustrator 26.0.1, SVG Export Plug-In . SVG Version: 6.00 Build 0)  -->
<svg version="1.1" id="Слой_1" xmlns="http://www.w3.org/2000/svg" xmlns:xlink="http://www.w3.org/1999/xlink" x="0px" y="0px"
	 viewBox="0 0 16 15" style="enable-background:new 0 0 16 15;" xml:space="preserve">
<g>
	<path d="M9.4,11.6c0.4,0,0.8-0.3,0.8-0.7V6.8c0-0.4-0.3-0.7-0.8-0.7C9,6.1,8.6,6.4,8.6,6.8v4.1C8.6,11.3,9,11.6,9.4,11.6z"/>
	<path d="M6.6,11.6c0.4,0,0.8-0.3,0.8-0.7V6.8c0-0.4-0.3-0.7-0.8-0.7c-0.4,0-0.8,0.3-0.8,0.7v4.1C5.8,11.3,6.2,11.6,6.6,11.6z"/>
	<path d="M14.2,2.7h-2.7V2.1c0-0.6-0.2-1.1-0.6-1.5C10.5,0.2,9.9,0,9.4,0H6.6C6,0,5.5,0.2,5.1,0.6S4.5,1.5,4.5,2.1v0.6H1.8
		C1.3,2.7,1,3,1,3.5c0,0.4,0.3,0.7,0.8,0.7h0.6v8.7c0,0.6,0.2,1.1,0.6,1.5S4,15,4.5,15h6.9c0.6,0,1.1-0.2,1.5-0.6s0.6-0.9,0.6-1.5
		V4.2h0.6c0.4,0,0.8-0.3,0.8-0.7C15,3,14.7,2.7,14.2,2.7z M6,2.1c0-0.2,0.1-0.3,0.2-0.4c0.1-0.1,0.3-0.2,0.4-0.2h2.8
		c0.2,0,0.3,0.1,0.4,0.2C9.9,1.8,10,2,10,2.1v0.6H6C6,2.7,6,2.1,6,2.1z M12.1,12.9c0,0.2-0.1,0.3-0.2,0.4c-0.1,0.2-0.3,0.2-0.4,0.2
		h-7c-0.1,0-0.3,0-0.4-0.2C4,13.2,3.9,13,3.9,12.9V4.2h8.2V12.9z"/>
</g>
</svg>
