<?xml version="1.0" encoding="utf-8"?>
<!-- Generator: Adobe Illustrator 26.0.1, SVG Export Plug-In . SVG Version: 6.00 Build 0)  -->
<svg version="1.1" id="Слой_1" xmlns="http://www.w3.org/2000/svg" xmlns:xlink="http://www.w3.org/1999/xlink" x="0px" y="0px"
	 viewBox="0 0 16 15" style="enable-background:new 0 0 16 15;" xml:space="preserve">
<style type="text/css">
	.st0{fill-rule:evenodd;clip-rule:evenodd;}
</style>
<path class="st0" d="M14.2,4.7c0-0.4-0.2-0.7-0.4-1c0-0.1-0.1-0.1-0.2-0.2l-2.9-2.9c-0.1-0.1-0.1-0.1-0.2-0.2C10.3,0.2,9.9,0,9.5,0
	C9.5,0,9.4,0,9.3,0H7.5C7.1,0,6.8,0,6.6,0C6.4,0,6.1,0.1,5.9,0.2C5.6,0.4,5.3,0.6,5.1,1C5,1.2,5,1.4,5,1.7c0,0.2,0,0.5,0,0.9v0.7
	H4.3c-0.3,0-0.6,0-0.9,0c-0.2,0-0.5,0.1-0.7,0.2C2.4,3.5,2.1,3.8,1.9,4.1C1.8,4.4,1.8,4.6,1.8,4.8c0,0.2,0,0.5,0,0.9v6.8
	c0,0.3,0,0.6,0,0.9c0,0.2,0.1,0.5,0.2,0.7c0.2,0.3,0.4,0.6,0.8,0.8C2.9,14.9,3.2,15,3.4,15c0.2,0,0.5,0,0.9,0h4.3c0.3,0,0.6,0,0.9,0
	c0.2,0,0.5-0.1,0.7-0.2c0.3-0.2,0.6-0.4,0.8-0.8c0.1-0.2,0.2-0.5,0.2-0.7c0-0.2,0-0.5,0-0.9v-0.7h0.7c0.3,0,0.6,0,0.9,0
	c0.2,0,0.5-0.1,0.7-0.2c0.3-0.2,0.6-0.4,0.8-0.8c0.1-0.2,0.2-0.5,0.2-0.7c0-0.2,0-0.5,0-0.9V4.9C14.3,4.9,14.3,4.8,14.2,4.7z
	 M9.8,1.1C9.8,1.2,9.9,1.2,9.8,1.1C9.9,1.2,9.9,1.2,10,1.3l2.9,2.9C13,4.3,13,4.3,13,4.4c0,0,0,0.1,0.1,0.1h-2.3c-0.3,0-0.5,0-0.6,0
	c-0.1,0-0.2,0-0.2,0c-0.1,0-0.2-0.1-0.2-0.2c0,0,0-0.1,0-0.2c0-0.1,0-0.3,0-0.6V1.1z M10,12.5c0,0.4,0,0.6,0,0.8
	c0,0.2,0,0.3-0.1,0.3c-0.1,0.1-0.2,0.3-0.3,0.3c-0.1,0-0.1,0.1-0.3,0.1c-0.2,0-0.4,0-0.8,0H4.3c-0.4,0-0.6,0-0.8,0
	c-0.2,0-0.3,0-0.3-0.1c-0.1-0.1-0.3-0.2-0.3-0.3c0-0.1-0.1-0.1-0.1-0.3c0-0.2,0-0.4,0-0.8V5.7c0-0.4,0-0.6,0-0.8
	c0-0.2,0-0.3,0.1-0.3C2.9,4.5,3,4.4,3.2,4.3c0.1,0,0.1-0.1,0.3-0.1c0.2,0,0.4,0,0.8,0h1.3v2.4c0,0.3,0,0.5,0,0.6
	c0,0.2,0.1,0.4,0.1,0.6c0.1,0.3,0.4,0.5,0.6,0.6c0.2,0.1,0.4,0.1,0.6,0.1c0.2,0,0.4,0,0.7,0H10V12.5z M6.6,6.6V4.3
	c0,0,0.1,0,0.1,0.1c0,0,0,0,0.1,0.1l2.9,2.9c0.1,0.1,0.1,0.1,0.1,0.1c0,0,0,0.1,0.1,0.1H7.6c-0.3,0-0.5,0-0.6,0c-0.1,0-0.2,0-0.2,0
	c-0.1,0-0.2-0.1-0.2-0.2c0,0,0-0.1,0-0.2C6.6,7.1,6.6,6.9,6.6,6.6z M13.2,9.3c0,0.4,0,0.6,0,0.8c0,0.2,0,0.3-0.1,0.3
	c-0.1,0.1-0.2,0.3-0.3,0.3c-0.1,0-0.1,0.1-0.3,0.1c-0.2,0-0.4,0-0.8,0h-0.6V8.1c0-0.1,0-0.2,0-0.2c0-0.4-0.2-0.7-0.4-1
	c0-0.1-0.1-0.1-0.2-0.2L7.5,3.8C7.5,3.7,7.4,3.6,7.4,3.6c-0.3-0.2-0.6-0.4-1-0.4c-0.1,0-0.1,0-0.2,0H6V2.5c0-0.4,0-0.6,0-0.8
	C6,1.6,6,1.5,6,1.4c0.1-0.1,0.2-0.3,0.3-0.3C6.4,1.1,6.5,1,6.7,1c0.2,0,0.4,0,0.8,0h1.3v2.4c0,0.3,0,0.5,0,0.6
	c0,0.2,0.1,0.4,0.1,0.6c0.1,0.3,0.4,0.5,0.6,0.6c0.2,0.1,0.4,0.1,0.6,0.1c0.2,0,0.4,0,0.7,0h2.4V9.3z"/>
</svg>
