<?xml version="1.0" encoding="utf-8"?>
<!-- Generator: Adobe Illustrator 26.0.1, SVG Export Plug-In . SVG Version: 6.00 Build 0)  -->
<svg version="1.1" id="Слой_1" xmlns="http://www.w3.org/2000/svg" xmlns:xlink="http://www.w3.org/1999/xlink" x="0px" y="0px"
	 viewBox="0 0 17 16" style="enable-background:new 0 0 17 16;" xml:space="preserve">
<path d="M15.3,4.7c-0.3-0.2-0.6-0.1-0.9,0.1l-0.9,0.7c-0.2,0.2-0.5,0.3-0.7,0.4c-0.3,0.1-0.6,0.1-0.8,0c-0.3-0.1-0.5-0.2-0.8-0.3
	c-0.2-0.2-0.4-0.4-0.5-0.6L8.9,1.6c-0.3-0.5-1-0.5-1.3,0L5.8,4.9C5.6,5.1,5.5,5.3,5.2,5.5C5,5.7,4.7,5.8,4.5,5.8
	c-0.3,0.1-0.6,0-0.8,0C3.4,5.7,3.1,5.6,2.9,5.4L2,4.7C1.8,4.6,1.4,4.5,1.2,4.7C0.9,4.9,0.8,5.2,0.8,5.5L2,11.3
	c0.1,0.4,0.2,0.7,0.5,1C2.7,12.6,3,12.9,3.3,13c1.5,0.8,3.2,1.2,4.9,1.2c1.7,0,3.4-0.4,4.9-1.2c0.3-0.2,0.6-0.4,0.9-0.7
	c0.2-0.3,0.4-0.6,0.5-1l1.2-5.8C15.7,5.2,15.6,4.9,15.3,4.7z"/>
</svg>
